<svg id="Layer_1" enable-background="new 0 0 512 512" height="512" viewBox="0 0 512 512" width="512" xmlns="http://www.w3.org/2000/svg"><g><path d="m437.65 188.761c-4.143 0-7.5 3.358-7.5 7.5v262.619c0 3.512-1.367 6.813-3.852 9.296l-24.973 24.973c-2.482 2.483-5.784 3.851-9.296 3.851h-185.922c-4.143 0-7.5 3.358-7.5 7.5s3.357 7.5 7.5 7.5h185.923c7.519 0 14.587-2.928 19.903-8.244l24.972-24.972c5.317-5.316 8.245-12.384 8.245-19.904v-262.619c0-4.142-3.357-7.5-7.5-7.5z"/><path d="m420.638 124.321h-48.349v-71.007c0-7.382-2.875-14.323-8.095-19.543l-25.675-25.675c-5.22-5.221-12.161-8.096-19.543-8.096h-74.318c-4.143 0-7.5 3.358-7.5 7.5s3.357 7.5 7.5 7.5h74.318c3.376 0 6.549 1.314 8.936 3.702l25.676 25.676c2.388 2.387 3.702 5.561 3.702 8.937v71.007h-15v-67.872c0-1.989-.79-3.896-2.196-5.303l-18.949-18.95c-1.409-1.407-3.316-2.197-5.305-2.197h-119.68c-1.989 0-3.896.79-5.304 2.197l-18.949 18.95c-1.406 1.407-2.196 3.314-2.196 5.303v67.871h-15v-71.007c0-3.375 1.314-6.549 3.702-8.937l25.676-25.676c2.387-2.387 5.56-3.702 8.936-3.702h16.659c4.143 0 7.5-3.358 7.5-7.5s-3.357-7.5-7.5-7.5h-16.659c-7.383 0-14.323 2.875-19.543 8.095l-25.676 25.676c-5.22 5.22-8.095 12.161-8.095 19.543v71.007h-48.349c-13.517 0-24.513 10.997-24.513 24.513v310.047c0 7.52 2.928 14.588 8.244 19.903l24.973 24.973c5.316 5.316 12.385 8.244 19.903 8.244h51.448c4.143 0 7.5-3.358 7.5-7.5s-3.357-7.5-7.5-7.5h-51.447c-3.512 0-6.813-1.368-9.296-3.851l-24.974-24.974c-2.483-2.482-3.851-5.783-3.851-9.295v-310.047c0-5.245 4.268-9.513 9.513-9.513h329.275c5.245 0 9.513 4.268 9.513 9.513v12.987c0 4.142 3.357 7.5 7.5 7.5s7.5-3.358 7.5-7.5v-12.987c0-13.516-10.996-24.512-24.512-24.512zm-93.349 0h-142.578v-64.765l14.556-14.556h113.467l14.556 14.556v64.765z"/><path d="m193.244 356.397v59.287c0 12.407 10.094 22.5 22.5 22.5s22.5-10.093 22.5-22.5v-59.287c0-9.778-6.27-18.119-15-21.215v-14.304c17.096-3.484 30-18.636 30-36.746v-78.038c0-4.142-3.357-7.5-7.5-7.5s-7.5 3.358-7.5 7.5v60.538h-15v-60.538c0-4.142-3.357-7.5-7.5-7.5s-7.5 3.358-7.5 7.5v60.538h-15v-60.538c0-4.142-3.357-7.5-7.5-7.5s-7.5 3.358-7.5 7.5v78.038c0 18.11 12.904 33.262 30 36.746v14.304c-8.73 3.096-15 11.437-15 21.215zm0-72.264v-2.5h45v2.5c0 12.406-10.094 22.5-22.5 22.5s-22.5-10.094-22.5-22.5zm22.5 64.764c4.136 0 7.5 3.364 7.5 7.5v59.287c0 4.136-3.364 7.5-7.5 7.5s-7.5-3.364-7.5-7.5v-59.287c0-4.136 3.364-7.5 7.5-7.5z"/><path d="m326.256 260.614c4.143 0 7.5-3.358 7.5-7.5v-47.019c0-4.142-3.357-7.5-7.5-7.5-26.191 0-47.5 21.309-47.5 47.5v88.037c0 4.142 3.357 7.5 7.5 7.5h12.5v13.55c-8.73 3.095-15 11.437-15 21.215v39.287c0 12.407 10.094 22.5 22.5 22.5s22.5-10.093 22.5-22.5v-39.287c0-9.778-6.27-18.119-15-21.215v-13.55h12.5c4.143 0 7.5-3.358 7.5-7.5v-45.812c0-4.142-3.357-7.5-7.5-7.5s-7.5 3.358-7.5 7.5v38.312h-25v-80.537c0-15.34 10.683-28.232 25-31.626v38.645c0 4.142 3.357 7.5 7.5 7.5zm-20 108.283c4.136 0 7.5 3.364 7.5 7.5v39.287c0 4.136-3.364 7.5-7.5 7.5s-7.5-3.364-7.5-7.5v-39.287c0-4.136 3.364-7.5 7.5-7.5z"/></g></svg>